<?xml version="1.0" encoding="UTF-8"?>
<!DOCTYPE svg  PUBLIC '-//W3C//DTD SVG 1.1//EN'  'http://www.w3.org/Graphics/SVG/1.1/DTD/svg11.dtd'>
<svg clip-rule="evenodd" fill-rule="evenodd" stroke-linejoin="round" stroke-miterlimit="2" version="1.1" viewBox="0 0 3332 1706" xmlSpace="preserve" xmlns="http://www.w3.org/2000/svg" xmlnsSerif="http://www.serif.com/"><rect y="506.06" width="734.12" height="687.06" fill="#fefffd"/><clipPath id="c"><rect y="506.06" width="734.12" height="687.06"/></clipPath><g clip-path="url(#c)"><path d="m392.57 506.06 96.227 97.198-146.18 147.66 146.44 147.3-146.66 147.12 146.42 145.88h-146.66l-146.42-145.88 146.66-147.12-146.44-147.3 146.18-147.66-100.39-97.198h-241.75v687.06h734.12v-687.06h-341.55z" fill="#d20018"/></g><rect x="2596.9" y="506.06" width="734.12" height="687.06" fill="#fefffd"/><path d="m2938.5 506.06-96.227 97.198 146.18 147.66-146.44 147.3 146.66 147.12-146.42 145.88h146.66l146.42-145.88-146.66-147.12 146.44-147.3-146.18-147.66 100.39-97.198h241.75v687.06h-734.12v-687.06h341.55z" fill="#d20018"/><path d="m953.56 677.82 219.44-171.76v687.06l-219.44-171.76-219.44 171.76v-687.06l219.44 171.76z" fill="#9d0a0e"/><clipPath id="b"><path d="m953.56 677.82 219.44-171.76v687.06l-219.44-171.76-219.44 171.76v-687.06l219.44 171.76z" serif:id="Left"/></clipPath><g clip-path="url(#b)"><rect x="925.93" y="655.78" width="55.265" height="387.61" fill="#390"/></g><path d="m2377.5 677.82 219.44-171.76v687.06l-219.44-171.76-219.44 171.76v-687.06l219.44 171.76z" fill="#9d0a0e"/><clipPath id="a"><path d="m2377.5 677.82 219.44-171.76v687.06l-219.44-171.76-219.44 171.76v-687.06l219.44 171.76z"/></clipPath><g clip-path="url(#a)"><rect x="2349.8" y="655.78" width="55.265" height="387.61" fill="#390"/></g><rect x="1173" y="506.06" width="985.03" height="687.06" fill="#d20018"/><rect x="1516.7" y="506.06" width="297.59" height="687.06" fill="#390"/><path d="m2073.6 715.9c-0-73.786-59.905-133.69-133.69-133.69h-546c-73.786 0-133.69 59.905-133.69 133.69v267.38c0 73.786 59.905 133.69 133.69 133.69h546c73.786-0 133.69-59.905 133.69-133.69v-267.38z" fill="#fefffd"/><path d="m423.43 160.54c6.575 9.777 22.631 34.55 70.931 64.927 53.117 33.408 195.2 86.456 208.22 92.553 14.432 6.76 68.724 34.18 79.493 42.023 19.219 13.997 35.972 34.721 48.446 54.402 3.454 5.45 62.873 116.96 74.578 152.08 3.807 11.419 8.868 21.202 12.426 32.304l0.094 0.624c2.145 15.066 9.855 80.56 9.855 80.56 1.614 13.703 14.05 23.518 27.753 21.903 13.703-1.614 23.518-14.049 21.903-27.753 0 0-10.474-85.706-11.35-88.567-3.699-12.086-9.145-22.579-13.247-34.883-12.543-37.627-76.079-157.19-79.78-163.03-15.677-24.735-37.089-50.462-61.242-68.053-11.912-8.676-71.755-39.407-87.72-46.885-12.665-5.932-151.12-57.091-202.81-89.598-46.748-29.402-56.9-52.497-60.723-56.774-7.166-8.018-14.676-9.122-19.803-9.122-13.798-0-25 11.202-25 25-0 7.221 3.069 13.732 7.975 18.293zm15.62 6.669 0.09 3e-3 -0.797-0.061 0.707 0.058zm-1.432-0.118 0.22 0.018-0.832-0.105 0.612 0.087zm-1.458-0.209 0.328 0.047-0.712-0.127 0.384 0.08zm-1.483-0.31 0.25 0.053-0.362-0.084 0.112 0.031z" fill="#390"/><path d="m936.95 630.24c-7.277 5.155-11.556 14.049-10.374 23.51 2.317 18.549 12.549 25.105 16.86 27.089 7.918 3.643 26.791 6.282 36.975-16.511 11.662-26.099 31.662-164.12 6.585-267.87-16.318-67.512-43.508-94.38-56.806-110.81-27.657-34.174-22.6-23.999-46.817-56.742-4.754-6.428-58.748-58.804-94.956-126.82-5.293-9.942-16.203-57.522-16.411-77.349-0.145-13.797-11.464-24.881-25.261-24.736s-24.881 11.464-24.736 25.262c0.27 25.766 15.394 87.397 22.272 100.32 37.889 71.173 93.918 126.33 98.892 133.06 24.934 33.712 19.675 23.279 48.15 58.465 10.951 13.531 33.634 35.507 47.072 91.104 17.964 74.326 4.267 183.89-1.445 222.04z" fill="#390"/><path d="m2907.4 1545c-6.575-9.777-22.631-34.549-70.931-64.927-53.117-33.408-195.2-86.456-208.22-92.553-14.432-6.76-68.724-34.179-79.493-42.022-19.218-13.997-35.972-34.722-48.446-54.403-3.454-5.45-62.873-116.96-74.578-152.08-3.807-11.419-8.868-21.202-12.426-32.305l-0.094-0.624c-2.144-15.065-9.855-80.559-9.855-80.559-1.614-13.703-14.05-23.518-27.753-21.904s-23.517 14.05-21.903 27.753c-0-0 10.474 85.707 11.35 88.568 3.699 12.085 9.145 22.578 13.247 34.883 12.543 37.626 76.079 157.19 79.78 163.03 15.677 24.734 37.089 50.461 61.242 68.052 11.912 8.676 71.756 39.407 87.72 46.885 12.666 5.933 151.12 57.092 202.81 89.599 46.747 29.401 56.9 52.496 60.722 56.774 7.166 8.017 14.676 9.122 19.803 9.122 13.798-0 25-11.202 25-25 0-7.222-3.068-13.733-7.975-18.294zm-11.497-6.084 0.362 0.084-0.112-0.032-0.25-0.052zm-1.561-0.305 0.713 0.127-0.385-0.08-0.328-0.047zm-1.35-0.18 0.832 0.106-0.612-0.088-0.22-0.018zm-1.302-0.102 0.797 0.06-0.707-0.058-0.09-2e-3z" fill="#390"/><path d="m2393.8 1075.4c7.277-5.155 11.556-14.049 10.374-23.51-2.317-18.549-12.549-25.105-16.86-27.088-7.918-3.643-26.791-6.282-36.975 16.51-11.662 26.099-31.662 164.12-6.584 267.87 16.317 67.513 43.507 94.38 56.805 110.81 27.657 34.175 22.6 23.999 46.817 56.743 4.754 6.427 58.748 58.803 94.956 126.82 5.293 9.943 16.203 57.523 16.411 77.349 0.145 13.797 11.464 24.881 25.261 24.736s24.881-11.464 24.736-25.261c-0.27-25.767-15.393-87.398-22.272-100.32-37.889-71.174-93.918-126.33-98.892-133.06-24.934-33.713-19.675-23.279-48.15-58.465-10.951-13.532-33.634-35.507-47.072-91.105-17.964-74.325-4.267-183.89 1.445-222.04z" fill="#390"/><g fill-rule="nonzero" serif:id="Start - Christmas Font"><path d="m1544 852.72c-14.059 0-35.719 0.38-56.238 4.18-3.8-8.74-8.36-16.719-12.54-23.939-6.84-11.4-11.4-20.52-11.4-20.52-4.18-8.74-6.46-15.959-7.6-22.419 51.299-23.18 69.159-46.359 69.159-46.359 13.3-15.96 7.98-26.219 4.94-30.399-4.94-7.22-17.48-5.7-17.48-5.7s-43.319 1.9-78.278 47.119c-8.36 10.639-12.92 20.899-14.82 30.019-8.359 3.04-18.239 6.46-28.499 10.64-25.079 9.879-51.679 22.419-68.778 42.939-17.1 20.139-17.86 39.139-13.3 51.678 7.22 19 21.659 23.56 30.019 25.08 2.28 0.38 4.18-2.28 2.66-4.56-3.42-6.08-4.56-13.68-3.8-21.28 4.18-37.239 43.319-63.838 81.318-82.458 2.28 15.58 10.64 26.98 14.82 32.3 0-0 9.5 11.019 18.24 25.079-33.06 9.12-62.699 25.459-72.199 52.439-13.679 37.999 23.94 45.979 23.94 45.979 4.94 1.14 9.499 1.14 14.439 1.14 36.86-1.14 64.219-21.28 76.379-55.479 4.179-12.16 2.28-26.219-2.66-39.899 10.639-2.28 23.939-3.42 39.899-3.8 1.14 0 1.9 0 2.66-0.38 4.56-2.28 8.359-5.32 10.639-8.74 0.76-1.14 0-2.66-1.52-2.66zm-15.199-123.88s-2.28-10.64-3.8-14.439c-0-0 9.5 5.699 3.8 14.439zm-53.199 14.06c20.14-23.94 40.279-23.94 40.279-23.94s4.18 0 5.7 1.9c1.9 2.66-0 10.64-7.6 17.86-14.06 14.06-40.659 26.219-56.619 32.679 3.04-8.74 9.12-17.479 18.24-28.499zm-9.88 164.54c-5.7 27.739-36.859 50.159-56.618 42.559-0 0-23.56-7.6-7.98-36.859 7.22-13.68 26.979-28.119 57.758-37.619 5.32 11.02 9.12 22.799 6.84 31.919z"/><path d="m1552 778.62c-22.799 86.258-26.219 133.76-26.219 133.76-4.18 52.439 29.259 50.539 29.259 50.539 37.999 0.76 68.399-75.238 75.238-90.438 1.14-3.04 1.52-6.46 0.76-9.5-0.38-3.04-1.9-5.7-3.04-7.98-1.14-1.52-3.799-1.52-4.559 0.38-29.64 73.339-60.039 101.08-67.639 94.238-11.4-10.26 18.62-120.08 34.579-175.56 26.6 0 33.44 9.12 34.96 14.06 0.759 1.52 2.279 1.9 3.419 0.76 5.32-5.7 15.96-19.38-1.14-27.74-6.459-3.419-19.759-3.039-33.059-2.279 1.9-6.46 3.42-11.4 4.18-14.06 0.76-1.52 0.76-3.42 0.38-5.32-2.28-14.44-19.759-18.24-26.979-19-1.9 0-3.42 0.76-3.8 2.66-4.56 14.06-8.36 27.36-12.16 39.899-22.039 2.28-34.959 0.76-43.319-2.66-5.32-2.279-8.36-6.839-9.88-10.259-0.38-1.52-2.66-1.52-3.42-0.38-3.419 4.94-8.739 14.059-5.319 21.279 4.559 10.26 13.679 14.82 57.758 7.6zm40.279-30.019s-0.76-9.5-3.04-14.44c0 0 8.36 4.18 3.04 14.44z"/><path d="m1634.4 960.64c22.8 3.42 40.279-17.86 50.919-36.859 0.38 41.419 29.639 39.139 29.639 39.139 39.899-1.14 70.299-80.178 74.479-91.578 0.38-1.52 0.76-3.04 0.76-4.18-0-4.18-1.52-8.36-3.04-11.4-1.14-1.9-4.18-1.52-5.32 0.38-25.46 66.879-60.039 98.038-65.739 93.858-7.219-5.32 6.84-70.678 25.08-117.8 0.76-1.9 1.14-3.8 1.52-5.7 1.14-15.58-7.98-25.459-19-28.499-4.18-1.14-8.36 1.14-9.88 4.939-2.28 5.32-4.179 10.64-6.079 15.58-3.42-8.36-9.88-14.44-20.14-14.82-37.999-1.519-66.498 55.099-66.498 55.099-26.22 52.439-20.14 97.278 13.299 101.84zm99.938-129.2s-1.14-15.2-3.42-20.14c0 0 11.4 6.46 3.42 20.14zm-85.118 46.359s28.499-61.559 42.939-60.039c11.02 0.76 5.7 30.779 2.28 44.459-0.38 2.28-0.76 4.56-1.52 6.46v0.38c-0.38 1.9-0.76 3.42-1.14 5.32-3.04 7.98-28.879 74.478-53.959 75.238 0 0-18.619-6.08 11.4-71.818z"/><path d="m1790.6 963.68c1.9-0 3.8-1.52 3.8-3.8 0.38-6.08 1.52-12.92 2.279-20.14 26.22-83.218 67.639-120.84 73.719-120.08-0 0-45.219 59.659-17.86 76.378 34.199 15.96 64.599-22.799 64.599-22.799 3.04-4.94 4.56-11.78 3.8-17.48-0-1.52-2.28-1.9-3.04-0.76-11.78 17.1-31.92 30.78-52.059 32.68-2.66-0-3.8-3.04-1.9-4.56 29.639-25.84 42.559-68.779 25.079-79.419-22.799-13.679-52.818 28.12-52.818 28.12-7.98 10.26-15.2 21.279-21.28 31.159 3.42-9.5 6.84-18.999 11.02-29.639 0.76-1.52 1.14-3.04 1.14-4.56 1.9-16.72-9.12-28.119-21.28-31.159-3.04-0.76-6.08 1.14-7.6 3.8-12.919 32.299-20.519 60.038-25.079 80.178-4.94 19.759-8.36 49.398-8.36 63.458 1.9 11.78 14.82 18.62 25.84 18.62zm98.037-130.34s1.52-10.26-1.52-18.62c0 0 10.26 6.46 1.52 18.62zm-71.438-0.38s0-11.4-1.14-17.1c0 0 7.6 5.7 1.14 17.1z"/><path d="m1932.8 778.62c-22.799 86.258-26.219 133.76-26.219 133.76-4.18 52.439 29.259 50.539 29.259 50.539 37.999 0.76 68.399-75.238 75.238-90.438 1.14-3.04 1.52-6.46 0.76-9.5-0.38-3.04-1.9-5.7-3.039-7.98-1.14-1.52-3.8-1.52-4.56 0.38-29.64 73.339-60.039 101.08-67.639 94.238-11.4-10.26 18.62-120.08 34.579-175.56 26.6 0 33.44 9.12 34.96 14.06 0.76 1.52 2.28 1.9 3.419 0.76 5.32-5.7 15.96-19.38-1.139-27.74-6.46-3.419-19.76-3.039-33.06-2.279 1.9-6.46 3.42-11.4 4.18-14.06 0.76-1.52 0.76-3.42 0.38-5.32-2.28-14.44-19.759-18.24-26.979-19-1.9 0-3.42 0.76-3.8 2.66-4.56 14.06-8.36 27.36-12.16 39.899-22.039 2.28-34.959 0.76-43.319-2.66-5.32-2.279-8.36-6.839-9.88-10.259-0.38-1.52-2.659-1.52-3.419-0.38-3.42 4.94-8.74 14.059-5.32 21.279 4.56 10.26 13.679 14.82 57.758 7.6zm40.279-30.019s-0.76-9.5-3.04-14.44c0 0 8.36 4.18 3.04 14.44z"/></g></svg>
