<?xml version="1.0" encoding="UTF-8"?>
<!DOCTYPE svg  PUBLIC '-//W3C//DTD SVG 1.1//EN'  'http://www.w3.org/Graphics/SVG/1.1/DTD/svg11.dtd'>
<svg clip-rule="evenodd" fill-rule="evenodd" stroke-linejoin="round" stroke-miterlimit="2" version="1.1" viewBox="0 0 3275 3298" xml:space="preserve" xmlns="http://www.w3.org/2000/svg"><path d="m3191.9 1554.5h-272.24l122.05-122.04c32.417-32.406 32.417-84.949 0.011-117.34-32.406-32.406-84.949-32.417-117.34-0.011l-239.41 239.39h-402.38l179.04-192.42c31.212-33.546 29.32-86.044-4.237-117.28-13.753-12.79-30.703-19.937-48.073-21.697-10.533-0.52-237.82-0.033-237.82-0.033l266.02-266.02h333.96c45.838 0 82.98-37.141 82.98-82.979s-37.142-82.98-82.98-82.98h-168.02l195.72-195.72c32.406-32.418 32.406-84.949-0-117.37-32.418-32.396-86.786-32.396-119.2-0l-199.85 198.02v-172.6c0-45.837-37.141-82.979-82.979-82.979s-82.98 37.142-82.98 82.979v338.57l-274.79 276.64-4.592-250.54c-0.011-0.398 0.387-0.774 0.376-1.172-0.387-20.181-7.789-40.284-22.902-55.973-31.787-32.992-86.055-33.966-119.06-2.146l-176.48 168.46v-389.67l237.54-235.71c32.406-32.417 33.325-84.949 0.918-117.36-32.417-32.395-86.331-32.395-118.74-0l-119.72 118.34v-269.87c-0-45.837-37.142-82.979-82.98-82.979s-82.979 37.142-82.979 82.979v269.88l-116.5-118.34c-32.418-32.395-84.02-32.395-116.44-0-32.406 32.417-33.789 84.949-1.383 117.36l234.32 235.71v391.9l-178.97-171.21c-33.292-31.499-84.861-30.072-116.39 3.197-11.893 12.569-18.62 27.881-21.176 43.758-1.571 6.45-2.246 13.144-2.224 20.037l-0.974 234.88-277.7-275.98v-330.74c0-45.837-37.142-82.979-82.979-82.979-45.838 0-82.98 37.142-82.98 82.979v164.79l-188.37-190.21c-32.417-32.396-84.02-32.396-116.44-0-32.406 32.417-31.941 84.948 0.465 117.37l196.18 195.72h-175.83c-45.837 0-82.979 37.142-82.979 82.98s37.142 82.979 82.979 82.979h341.79l273.77 273.77-255.1 9.194c-44.488 1.615-83.245 38.005-83.676 82.072-0.045 1.239-3.862 2.49-3.862 3.729v0.121c0 0.089 3.817 0.189 3.817 0.266 0.498 20.745 10.566 41.335 26.498 57.068l175.26 171.24h-384.17l-239.4-239.4c-32.417-32.395-84.949-32.395-117.36-0-32.406 32.417-32.406 84.949 0 117.36l122.04 122.04h-280.03c-45.837-0-82.979 37.142-82.979 82.979-0 45.838 37.142 82.98 82.979 82.98h276.82l-118.83 118.83c-32.406 32.418-32.406 84.949 0 117.36 16.209 16.198 37.452 24.297 58.683 24.297 21.232-0 42.475-8.099 58.683-24.297l236.17-236.17h387.54l-168.76 181.38c-31.212 33.546-29.32 86.044 4.237 117.28 15.977 14.87 36.257 22.228 56.493 22.228 0.376-0 0.752-0.056 1.139-0.056 0.244 0 0.487 0.034 0.719 0.034h0.609l243.46-1.383-277.97 277.97h-338.57c-45.837-0-82.979 37.141-82.979 82.979s37.142 82.979 82.979 82.979h172.61l-192.5 192.5c-32.407 32.417-32.407 84.948-0 117.36 16.208 16.197 37.451 24.296 58.683 24.296 21.231 0 40.626-8.099 56.835-24.296l188.36-190.2v168c0 45.838 37.142 82.98 82.98 82.98 45.837-0 82.979-37.142 82.979-82.98v-333.96l281.52-279.67 10.809 269.85c1.637 44.765 38.912 80.833 83.333 79.937 15.092-0.299 31.466-5.145 47.708-17.072 11.761-8.641 174.08-174.94 174.08-174.94v391.5l-232.02 233.86c-32.417 32.406-31.488 84.948 0.908 117.36 16.208 16.208 37.893 24.307 59.136 24.307 21.232 0 40.859-8.099 57.057-24.296l114.92-116.52v272.23c-0 45.838 37.141 82.98 82.979 82.98s82.98-37.142 82.98-82.98v-280.03l126.17 124.33c16.208 16.197 38.369 24.296 59.601 24.296s42.939-8.099 59.137-24.296c32.406-32.418 30.791-84.949-1.616-117.36l-243.3-241.69v-394.98s151.9 142.68 175.87 165.69c23.975 23.013 43.614 35.957 72.192 35.957h0.509c45.827 0 82.758-39.874 82.481-85.701l-3.385-262.17 269.78 271.63v341.76c0 45.838 37.142 82.98 82.98 82.98s82.979-37.142 82.979-82.98v-175.82l199.86 198.01c16.209 16.197 38.359 24.296 59.601 24.296 21.232 0 42.928-8.099 59.137-24.296 32.406-32.418 32.639-84.949 0.232-117.36l-192.29-192.5h164.8c45.838 0 82.98-37.141 82.98-82.979s-37.142-82.979-82.98-82.979h-330.74l-284.81-284.81 255.12-9.194c0.907-0.033 1.792-0.177 2.689-0.232 0.332-0.022 0.663-0.056 0.995-0.089 44.002-3.529 77.857-41.036 76.253-85.59-0.963-26.819-14.604-50.131-34.907-64.58l-153.29-152.96h385.41l236.16 236.17c16.208 16.209 37.44 24.308 58.683 24.308 21.231-0 42.474-8.099 58.672-24.297 32.417-32.406 32.417-84.948 0.011-117.34l-118.83-118.83h269.01c45.838-0 82.98-37.142 82.98-82.979-0-45.838-37.142-82.991-82.98-82.991zm-981.42-166.15-154.58 166.15h-215.82l165.98-165.98 204.43-0.166zm-338.39-328.59 3.939 221.3-159.31 158.38v-231.69l155.37-147.99zm-475.16 0.896 153.83 147.4v223.55l-154.06-154.98 0.232-215.97zm-336.35 338.32 218.64-7.878 163.39 163.39h-224.59l-157.45-155.51zm4.248 476.11 143.88-154.64h230.69l-153.14 153.14-221.43 1.504zm338.74 355.4-9.448-232.81 156.64-157.56v239.02l-147.2 151.34zm475.26-3.707-162.11-149.12v-245.39l159.78 158.87 2.323 235.64zm333.82-361.79-217.01 7.811-152.35-152.35h224.51l144.85 144.54z" fill="#fffefe" fill-rule="nonzero"/><path d="m2875.8 1573.6h-216.88l97.227-97.218c25.824-25.816 25.824-67.673 8e-3 -93.48-25.816-25.816-67.673-25.825-93.48-9e-3l-190.72 190.71h-320.55l142.63-153.29c24.864-26.724 23.357-68.546-3.376-93.427-10.956-10.189-24.459-15.883-38.296-17.284-8.391-0.415-189.46-0.027-189.46-0.027l211.92-211.92h266.05c36.516 0 66.104-29.588 66.104-66.104s-29.588-66.105-66.104-66.105h-133.85l155.92-155.92c25.816-25.825 25.816-67.673-0-93.498-25.825-25.807-69.137-25.807-94.962 0l-159.21 157.75v-137.5c0-36.516-29.588-66.104-66.104-66.104s-66.104 29.588-66.104 66.104v269.72l-218.91 220.38-3.658-199.59c-8e-3 -0.317 0.309-0.617 0.3-0.934-0.308-16.077-6.205-32.091-18.245-44.59-25.322-26.283-68.554-27.058-94.846-1.71l-140.59 134.2v-310.43l189.24-187.77c25.816-25.825 26.547-67.673 0.731-93.489-25.824-25.807-68.775-25.807-94.591-0l-95.375 94.274v-214.99c-0-36.516-29.589-66.104-66.105-66.104s-66.104 29.588-66.104 66.104v215l-92.811-94.273c-25.824-25.808-66.933-25.808-92.757-0-25.816 25.824-26.918 67.673-1.102 93.489l186.67 187.77v312.2l-142.57-136.4c-26.521-25.093-67.603-23.956-92.722 2.547-9.475 10.013-14.834 22.212-16.87 34.86-1.252 5.138-1.79 10.47-1.772 15.962l-0.776 187.11-221.23-219.85v-263.48c-0-36.516-29.588-66.104-66.104-66.104s-66.105 29.588-66.105 66.104v131.28l-150.07-151.53c-25.824-25.807-66.933-25.807-92.757 0-25.816 25.825-25.446 67.673 0.37 93.498l156.29 155.92h-140.07c-36.516 0-66.104 29.589-66.104 66.105s29.588 66.104 66.104 66.104h272.28l218.09 218.09-203.22 7.324c-35.441 1.287-66.316 30.276-66.66 65.382-0.035 0.987-3.076 1.983-3.076 2.97v0.097c0 0.071 3.041 0.15 3.041 0.212 0.397 16.526 8.418 32.929 21.11 45.462l139.62 136.41h-306.05l-190.72-190.72c-25.824-25.807-67.673-25.807-93.489 0-25.816 25.825-25.816 67.674 0 93.49l97.218 97.217h-223.08c-36.516 0-66.104 29.589-66.104 66.105s29.588 66.104 66.104 66.104h220.52l-94.662 94.662c-25.816 25.824-25.816 67.673 0 93.489 12.913 12.903 29.835 19.355 46.749 19.355s33.837-6.452 46.749-19.355l188.14-188.14h308.73l-134.44 144.5c-24.864 26.724-23.357 68.546 3.375 93.428 12.728 11.846 28.884 17.707 45.004 17.707 0.3 0 0.6-0.044 0.908-0.044 0.194-0 0.388 0.026 0.573 0.026h0.485l193.95-1.101-221.44 221.44h-269.72c-36.516-0-66.104 29.588-66.104 66.104s29.588 66.105 66.104 66.105h137.51l-153.35 153.35c-25.816 25.825-25.816 67.673-0 93.489 12.912 12.904 29.835 19.356 46.749 19.356s32.365-6.452 45.277-19.356l150.06-151.52v133.84c0 36.517 29.589 66.105 66.105 66.105s66.104-29.588 66.104-66.105v-266.05l224.27-222.8 8.611 214.97c1.305 35.662 30.999 64.395 66.387 63.681 12.022-0.238 25.067-4.098 38.006-13.6 9.369-6.883 138.68-139.37 138.68-139.37v311.88l-184.84 186.3c-25.825 25.816-25.084 67.673 0.723 93.489 12.912 12.913 30.187 19.364 47.11 19.364 16.914 0 32.55-6.451 45.454-19.355l91.55-92.828v216.87c-0 36.516 29.588 66.105 66.104 66.105s66.105-29.589 66.105-66.105v-223.08l100.51 99.042c12.912 12.904 30.566 19.355 47.48 19.355s34.207-6.451 47.111-19.355c25.816-25.825 24.529-67.673-1.287-93.489l-193.82-192.54v-314.66s121.01 113.66 140.11 132 34.744 28.645 57.511 28.645h0.405c36.507 0 65.928-31.765 65.708-68.272l-2.697-208.86 214.92 216.39v272.26c0 36.517 29.589 66.105 66.105 66.105s66.104-29.588 66.104-66.105v-140.06l159.22 157.74c12.912 12.904 30.558 19.356 47.481 19.356 16.914-0 34.198-6.452 47.11-19.356 25.816-25.825 26.001-67.673 0.185-93.489l-153.19-153.35h131.28c36.516-0 66.104-29.589 66.104-66.105s-29.588-66.104-66.104-66.104h-263.48l-226.89-226.89 203.24-7.325c0.723-0.026 1.428-0.141 2.142-0.185 0.265-0.017 0.529-0.044 0.793-0.07 35.053-2.812 62.024-32.691 60.746-68.185-0.767-21.365-11.634-39.936-27.808-51.447l-122.12-121.85h307.03l188.13 188.14c12.913 12.912 29.827 19.364 46.749 19.364 16.914 0 33.837-6.452 46.741-19.355 25.824-25.816 25.824-67.674 8e-3 -93.481l-94.661-94.661h214.3c36.516-0 66.104-29.589 66.104-66.105s-29.588-66.113-66.104-66.113zm-781.84-132.36-123.15 132.36h-171.93l132.23-132.23 162.86-0.133zm-269.57-261.76 3.138 176.3-126.91 126.17v-184.57l123.77-117.9zm-378.53 0.714 122.55 117.43v178.09l-122.73-123.47 0.185-172.05zm-267.95 269.52 174.18-6.276 130.16 130.16h-178.91l-125.43-123.89zm3.385 379.29 114.62-123.19h183.78l-121.99 121.99-176.4 1.199zm269.86 283.12-7.528-185.46 124.79-125.52v190.42l-117.26 120.57zm378.61-2.953-129.14-118.79v-195.48l127.29 126.56 1.85 187.72zm265.93-288.22-172.88 6.223-121.37-121.37h178.85l115.39 115.14z" fill="url(#b)" fill-rule="nonzero"/><path d="m1700.6 2712.5-40.481-39.888v223.08c-0 29.454-19.251 54.401-45.864 62.949 6.375 2.049 13.178 3.156 20.24 3.156 36.516-0 66.105-29.589 66.105-66.105v-183.19zm127.69 75.41c6.651 2.067 13.537 3.099 20.304 3.099 16.914 0 34.207-6.451 47.111-19.355 25.816-25.825 24.529-67.673-1.287-93.489l-193.82-192.54v-276.61c-22.861-21.496-40.481-38.047-40.481-38.047v314.66l193.82 192.54c25.816 25.816 27.102 67.664 1.287 93.489-7.741 7.741-17.062 13.16-26.934 16.256zm-300.38-68.038v-41.046l-91.551 92.828c-7.645 7.645-16.249 13.026-25.513 16.142 6.694 2.143 13.647 3.213 20.541 3.213 16.914 0 32.55-6.451 45.454-19.355l51.069-51.782zm-250.13-626.91-1.549-38.676-224.27 222.8v266.05c-0 29.454-19.25 54.401-45.864 62.949 6.375 2.049 13.178 3.156 20.241 3.156 36.516-0 66.104-29.588 66.104-66.105v-266.05l185.34-184.12zm1031 350.22-40.481-40.107v140.06c0 29.454-19.25 54.401-45.864 62.949 6.376 2.049 13.179 3.156 20.241 3.156 36.516-0 66.104-29.588 66.104-66.105v-99.955zm-1389 6.992v-40.876l-150.06 151.52c-7.623 7.619-16.132 12.988-25.306 16.108 6.653 2.165 13.582 3.248 20.51 3.248 16.914-0 32.365-6.452 45.277-19.356l109.58-110.64zm1489.8-136.2h-40.481l153.19 153.35c25.816 25.816 25.631 67.664-0.185 93.489-7.746 7.741-17.066 13.16-26.937 16.257 6.65 2.066 13.537 3.099 20.308 3.099 16.914-0 34.198-6.452 47.11-19.356 25.816-25.825 26.001-67.673 0.185-93.489l-153.19-153.35zm-881.66-92.662v-41.337s-129.31 132.48-138.68 139.37c-6.43 4.722-12.887 8.051-19.233 10.234 6.83 2.324 14.139 3.519 21.709 3.366 12.022-0.238 25.067-4.098 38.006-13.6 5.902-4.337 59.409-58.523 98.197-98.029zm434.26-125.53-41.014-41.295 2.697 208.86c0.179 29.629-19.167 56.135-45.976 65.069 6.269 2.109 12.929 3.203 20.344 3.203h0.405c36.507 0 65.928-31.765 65.708-68.272l-2.164-167.56zm205.31-389.96h-40.481l122.12 121.85c16.173 11.511 27.041 30.082 27.808 51.447 1.278 35.494-25.693 65.373-60.746 68.185-0.264 0.026-0.529 0.053-0.793 0.07-0.714 0.044-1.419 0.159-2.142 0.185l-203.24 7.325 226.89 226.89h263.48c36.516-0 66.105 29.588 66.105 66.104s-29.589 66.105-66.105 66.105h40.482c36.516-0 66.104-29.589 66.104-66.105s-29.588-66.104-66.104-66.104h-263.48l-226.89-226.89 203.24-7.325c0.723-0.026 1.428-0.141 2.142-0.185 0.265-0.017 0.529-0.044 0.793-0.07 35.053-2.812 62.024-32.691 60.746-68.185-0.767-21.365-11.634-39.936-27.808-51.447l-122.12-121.85zm-1204.2 475.95h-229.23 229.23zm564.67-339.9-84.307 84.8 5.906 145.51-38.86 39.955-7.527-185.46 124.79-125.52v40.719zm172.69-6.719v155.24l88.29 81.216 0.37 37.578-129.14-118.79v-195.48l40.481 40.249zm-516.15 125.41 0.231-0.231-160.67 0.912c1.742 0.138 3.488 0.207 5.234 0.207 0.3 0 0.6-0.044 0.908-0.044 0.194-0 0.388 0.026 0.573 0.026h0.485l153.24-0.87zm1477-254.73h-40.481l94.661 94.661c25.816 25.807 25.816 67.665-9e-3 93.481-7.69 7.69-16.808 13.089-26.501 16.195 6.57 2.107 13.406 3.16 20.242 3.16 16.914 0 33.837-6.452 46.741-19.355 25.824-25.816 25.824-67.674 8e-3 -93.481l-94.661-94.661zm-1854.9-9e-3h-40.481l-188.14 188.14c-7.696 7.69-16.816 13.089-26.508 16.195 6.572 2.107 13.407 3.16 20.24 3.16 16.914 0 33.837-6.452 46.749-19.355l188.14-188.14zm489.31-0-114.36 122.92-40.738 0.277 114.62-123.19h40.481zm505.54-0 119.96 119.96-39.074 1.407-121.37-121.37h40.481zm887.72-339.11c9.693 3.107 18.814 8.509 26.51 16.205 25.816 25.807 25.816 67.664-9e-3 93.48l-97.226 97.218h216.88c36.517 0 66.105 29.597 66.105 66.113s-29.588 66.105-66.105 66.105h40.482c36.516-0 66.104-29.589 66.104-66.105s-29.588-66.113-66.104-66.113h-216.88l97.227-97.218c25.824-25.816 25.824-67.673 8e-3 -93.48-18.125-18.125-44.158-23.529-66.991-16.205zm-516.3-57.284c21.204 0.016 36.694 0.069 39.011 0.184 13.838 1.401 27.341 7.095 38.297 17.284 26.733 24.881 28.24 66.703 3.376 93.427l-142.63 153.29h320.55-280.07l142.63-153.29c24.864-26.724 23.357-68.546-3.376-93.427-10.956-10.189-24.459-15.883-38.296-17.284-3.64-0.18-39.758-0.209-79.493-0.184zm-1621.4 57.276c9.693 3.106 18.812 8.505 26.507 16.195l190.72 190.72h306.05-265.56l-190.72-190.72c-18.129-18.116-44.154-23.515-66.988-16.195zm1502 74.585-122.34 0.1-132.23 132.23h131.45-171.93l132.23-132.23 162.85-0.133-0.03 0.033zm-740.44 3.57-135.11 4.868 125.43 123.89h138.43-178.91l-125.43-123.89 174.18-6.276 1.408 1.408zm-731.32 128.75h-182.6 182.6zm1202.9-356.2-83.967 79.98v144.33l-40.481 40.245v-184.57l123.77-117.9 0.674 37.915zm-338.77 1.548-0.144 133.3 82.253 82.743v40.723l-122.73-123.47 0.185-172.05 40.44 38.749zm829.01-121.29h-40.481l-211.92 211.92s16.877-0.036 40.555-0.073l211.85-211.85zm-407.31-133.58c10.396 3.202 20.109 8.939 28.058 17.189 12.04 12.499 17.937 28.513 18.245 44.59 9e-3 0.317-0.308 0.617-0.3 0.934l3.658 199.59 39.748-40.016-2.925-159.58c-8e-3 -0.317 0.309-0.617 0.3-0.934-0.308-16.077-6.205-32.091-18.245-44.59-17.976-18.658-44.978-24.462-68.539-17.189zm-861.4-290.74c26.614 8.548 45.864 33.495 45.864 62.948v263.48l221.23 219.85 0.166-40.064-180.91-179.79v-263.48c-0-36.516-29.588-66.104-66.104-66.104-7.063-0-13.866 1.107-20.241 3.156zm354.37 290.94c8.976 2.938 17.481 7.889 24.859 14.87l142.57 136.4v-38.727l-102.09-97.669c-18.209-17.229-43.283-22.092-65.34-14.87zm462.55-458.5c9.948 3.089 19.28 8.521 27.058 16.294 25.816 25.816 25.085 67.664-0.731 93.489l-189.24 187.77v310.43l40.481-38.641v-271.78l189.24-187.77c25.816-25.825 26.547-67.673 0.731-93.489-18.046-18.034-44.455-23.466-67.539-16.294zm672.18 193.93c10.035 3.085 19.436 8.527 27.24 16.326 25.816 25.825 25.816 67.673 0 93.498l-155.92 155.92h133.85c36.516 0 66.105 29.589 66.105 66.105s-29.589 66.104-66.105 66.104h40.482c36.516 0 66.104-29.588 66.104-66.104s-29.588-66.105-66.104-66.105h-133.85l155.92-155.92c25.816-25.825 25.816-67.673-0-93.498-18.021-18.008-44.556-23.45-67.722-16.326zm-1661.6 265.74h-99.59 99.59zm1388.8-292.11c26.614 8.548 45.864 33.495 45.864 62.948v137.5l40.481-40.112v-97.386c0-36.516-29.588-66.104-66.104-66.104-7.062-0-13.865 1.107-20.241 3.156zm-1478.9 26.567c9.523 3.118 18.499 8.493 26.138 16.127l150.07 151.53v-40.876l-109.58-110.65c-18.185-18.173-43.95-23.549-66.619-16.127zm665.41-193.95c9.523 3.117 18.499 8.493 26.138 16.127l92.811 94.273v-41.119l-52.33-53.154c-18.185-18.174-43.95-23.549-66.619-16.127zm205.29-167.55c26.613 8.548 45.864 33.494 45.864 62.948v214.99l40.481-40.014v-174.98c-0-36.516-29.589-66.104-66.105-66.104-7.062-0-13.865 1.107-20.24 3.156z" fill="url(#a)" fill-rule="nonzero"/><path d="m1550.8 2988.7v225.34c-0 45.838 37.141 82.98 82.979 82.98 8.022-0 15.777-1.138 23.119-3.263-34.582-10.003-59.861-41.9-59.861-79.717v-272.23l-46.237 46.882zm212.2-9.123 79.936 78.766c16.208 16.197 38.369 24.296 59.601 24.296 7.716 0 15.494-1.069 23.05-3.21-13.365-3.746-26.096-10.775-36.415-21.086l-126.17-124.33v45.56zm-212.2-616.73v344.28l-232.02 233.86c-32.417 32.406-31.488 84.948 0.908 117.36 16.208 16.208 37.893 24.307 59.136 24.307 7.85 0 15.48-1.107 22.797-3.322-13.088-3.775-25.48-10.769-35.697-20.985-32.395-32.407-33.324-84.949-0.907-117.36l232.02-233.86v-391.5s-19.884 20.372-46.237 47.222zm-763.41 287.33v121.32c0 45.838 37.142 82.98 82.98 82.98 8.021-0 15.777-1.138 23.118-3.263-34.581-10.003-59.861-41.9-59.861-79.717v-168l-46.237 46.687zm1303.9-444.91 222.94 224.46v341.76c0 45.838 37.142 82.98 82.98 82.98 8.021-0 15.777-1.138 23.118-3.263-34.581-10.003-59.861-41.9-59.861-79.717v-341.76l-269.78-271.63 0.609 47.166zm-1415.3 278.57-192.5 192.5c-32.407 32.417-32.407 84.948-0 117.36 16.208 16.197 37.451 24.296 58.683 24.296 7.887 0 15.521-1.118 22.83-3.354-12.914-3.781-25.089-10.762-35.277-20.942-32.406-32.407-32.406-84.938 0-117.36l192.5-192.5h-46.237zm1850.4 157.66 153.62 152.2c16.209 16.197 38.359 24.296 59.601 24.296 7.716 0 15.493-1.069 23.047-3.21-13.367-3.746-26.093-10.775-36.411-21.086l-199.86-198.01v45.809zm-1289.8-439.46 9.04 225.67c1.637 44.765 38.912 80.833 83.333 79.937 6.876-0.136 14.018-1.216 21.29-3.479-32.65-10.015-57.068-40.418-58.386-76.458l-10.81-269.85-44.467 44.176zm526.36 145.74c46.782 43.984 114.32 107.54 129.64 122.24 23.975 23.013 43.614 35.957 72.192 35.957h0.509c7.795 0 15.333-1.153 22.471-3.294-17.26-5.2-32.018-16.425-48.935-32.663-23.976-23.013-175.87-165.69-175.87-165.69v43.456zm-643.32-307.61-277.7 277.71h46.236l277.97-277.97-46.501 0.264zm431.12-153.57 46.237-46.508v239.02l-147.2 151.34-1.852-45.636 102.81-105.71v-192.52zm212.2-8.381v-45.971l159.79 158.87 2.323 235.64-46.66-42.921-1.9-192.72-113.55-112.9zm-734.71-157.79h-46.237l-168.76 181.38c-31.212 33.546-29.32 86.044 4.237 117.28 15.977 14.87 36.257 22.228 56.493 22.228 0.376-0 0.752-0.056 1.139-0.056 0.244 0 0.487 0.034 0.719 0.034h0.609l37.525-0.213c-18.119-1.359-35.916-8.653-50.248-21.993-33.557-31.233-35.449-83.731-4.237-117.28l168.76-181.38zm1706.2-0h-46.237l236.16 236.17c16.208 16.209 37.44 24.308 58.683 24.308 7.788-0 15.577-1.09 23.116-3.27-13.022-3.763-25.299-10.774-35.562-21.038l-236.16-236.17zm-2374.7-0.011-118.83 118.83c-32.406 32.418-32.406 84.949 0 117.36 16.209 16.198 37.452 24.297 58.683 24.297 7.788-0 15.577-1.09 23.119-3.271-13.02-3.76-25.302-10.769-35.565-21.026-32.406-32.406-32.406-84.937 0-117.36l118.83-118.83h-46.237zm1125.9 0.011-153.14 153.14-221.43 1.504 0.294-0.316 174.9-1.188 153.14-153.14h46.237zm628.41-0 144.85 144.54-217.01 7.811-1.607-1.606 172.38-6.205-144.85-144.54h46.237zm-1751.1-165.97h46.237l-122.04-122.04c-32.406-32.406-32.406-84.938 0-117.36 10.26-10.256 22.537-17.266 35.556-21.026-28.101-8.122-59.646-1.113-81.793 21.026-32.406 32.417-32.406 84.949 0 117.36l122.04 122.04zm1847.5-166.1 46.272-0.038-154.58 166.15h-46.237l154.55-166.11zm-929.62 4.325 44.629-1.608 163.39 163.39h-46.237l-161.78-161.78zm1404.1 161.78h46.237l239.41-239.39c10.253-10.257 22.524-17.266 35.54-21.028-28.099-8.123-59.642-1.115-81.777 21.028l-239.41 239.39zm-1839.8-597.45 273.77 273.77-255.1 9.194c-44.488 1.615-83.245 38.005-83.676 82.072-0.045 1.239-3.862 2.49-3.862 3.729v0.121c0 0.089 3.817 0.189 3.817 0.266 0.498 20.745 10.566 41.335 26.498 57.068l175.26 171.24h46.237l-175.26-171.24c-15.932-15.733-26-36.323-26.498-57.068 0-0.077-3.817-0.177-3.817-0.266v-0.121c0-1.239 3.817-2.49 3.861-3.729 0.432-44.067 39.189-80.457 83.677-82.072l255.1-9.194-273.77-273.77h-46.237zm1027.7 146.02 45.466-43.306 3.939 221.3-159.31 158.38v-45.967l113.07-112.41-3.168-177.99zm-429.74 1.849 0.048-44.259 153.83 147.4v223.55l-46.237-46.512v-177.03l-107.64-103.15zm774.7 118.06-0.085 0.085s75.042-0.161 140.88-0.198c-41.791-0.032-100.37 0.045-140.8 0.113zm-133.04-150.05 0.838 45.705 274.79-276.64v-338.57c0-37.816 25.28-69.713 59.861-79.716-7.341-2.126-15.097-3.263-23.118-3.263-45.838 0-82.98 37.142-82.98 82.979v338.57l-229.4 230.94zm-853.56-8.542 46.047 45.761 0.974-234.88c-0.022-6.893 0.653-13.587 2.224-20.037 2.556-15.877 9.282-31.189 21.176-43.758 10.478-11.055 23.169-18.594 36.666-22.576-28.666-8.464-60.736-0.812-82.903 22.576-11.893 12.569-18.62 27.881-21.176 43.758-1.571 6.45-2.246 13.144-2.224 20.037l-0.784 189.12zm319.55-129.13 46.237 44.233v-391.9l-234.32-235.71c-32.406-32.406-31.023-84.938 1.383-117.36 10.198-10.192 22.296-17.177 35.1-20.955-27.887-8.234-59.118-1.249-81.337 20.955-32.406 32.417-33.789 84.949-1.383 117.36l234.32 235.71v347.66zm212.2-2.137v44.135l176.48-168.46c10.175-9.81 22.371-16.503 35.311-20.102-27.975-7.774-59.505-1.151-81.548 20.102l-130.24 124.32zm-1083.8-142.04h46.237l-196.18-195.72c-32.407-32.418-32.871-84.949-0.465-117.37 10.198-10.192 22.296-17.177 35.1-20.956-27.887-8.233-59.118-1.248-81.337 20.956-32.406 32.417-31.941 84.948 0.465 117.37l196.18 195.72zm1847.2-160.88v45.815l199.85-198.02c10.389-10.383 23.034-17.438 36.483-21.164-28.53-7.904-60.693-0.849-82.72 21.164l-153.61 152.21zm-1739-8.684 46.237 46.688v-164.79c0-37.816 25.28-69.713 59.861-79.716-7.341-2.126-15.097-3.263-23.118-3.263-45.838 0-82.98 37.142-82.98 82.979v118.1zm763.4-315.61 46.237 46.966v-269.88c-0-37.816 25.279-69.713 59.861-79.716-7.342-2.126-15.097-3.263-23.119-3.263-45.838-0-82.979 37.142-82.979 82.979v222.92zm212.2 1.252v45.703l119.72-118.34c10.354-10.35 22.903-17.394 36.247-21.13-28.419-7.958-60.431-0.915-82.484 21.13l-73.486 72.637zm-1213.4 2010.7h-46.237c-45.837-0-82.979 37.141-82.979 82.979s37.142 82.979 82.979 82.979h46.237c-45.838 0-82.979-37.141-82.979-82.979s37.141-82.979 82.979-82.979zm-420.43-763.42h-46.237c-45.837-0-82.979 37.142-82.979 82.979-0 45.838 37.142 82.98 82.979 82.98h46.237c-45.838-0-82.979-37.142-82.979-82.98-0-45.837 37.141-82.979 82.979-82.979zm420.43-763.4h-46.237c-45.837 0-82.979 37.142-82.979 82.98s37.142 82.979 82.979 82.979h46.237c-45.838 0-82.979-37.141-82.979-82.979s37.141-82.98 82.979-82.98z" fill="#dffffb" fill-rule="nonzero"/><path d="m1716.8 2986.8-53.569-52.785v280.03c-0 36.464-23.504 67.425-56.195 78.563 8.4 2.863 17.41 4.417 26.784 4.417 45.838-0 82.98-37.142 82.98-82.98v-227.24zm158.9 91.506c8.778 2.887 17.908 4.331 26.872 4.331 21.232 0 42.939-8.099 59.137-24.296 32.406-32.418 30.791-84.949-1.616-117.36l-243.3-241.69v-344.63c-30.014-28.223-53.569-50.35-53.569-50.35v394.98l243.3 241.69c32.406 32.406 34.022 84.937 1.616 117.36-9.359 9.359-20.558 16.014-32.44 19.965zm-378.43-82.174v-54.316l-114.92 116.52c-9.228 9.228-19.569 15.827-30.684 19.795 8.833 3.002 18.055 4.501 27.196 4.501 21.232 0 40.859-8.099 57.057-24.296l61.352-62.209zm-313.88-787.1-2.051-51.181-281.52 279.67v333.96c-0 36.464-23.504 67.425-56.195 78.563 8.401 2.864 17.411 4.417 26.785 4.417 45.837-0 82.979-37.142 82.979-82.98v-333.96l230-228.49zm1296.8 439.71-53.569-53.073v175.82c0 36.464-23.504 67.425-56.195 78.563 8.401 2.864 17.411 4.417 26.785 4.417 45.838-0 82.979-37.142 82.979-82.98v-122.74zm-1746.4 8.829v-54.091l-188.36 190.2c-9.197 9.19-19.42 15.773-30.42 19.747 8.782 3.033 17.969 4.549 27.154 4.549 21.231 0 40.626-8.099 56.835-24.296l134.79-136.11zm1984.1-339.71c45.838-0 82.98 37.141 82.98 82.979s-37.142 82.979-82.98 82.979h-164.8l192.29 192.5c32.406 32.406 32.174 84.937-0.232 117.36-9.365 9.359-20.563 16.014-32.444 19.965 8.777 2.887 17.908 4.331 26.876 4.331 21.232 0 42.928-8.099 59.137-24.296 32.406-32.418 32.639-84.949 0.232-117.36l-192.29-192.5h164.8c45.838 0 82.98-37.141 82.98-82.979s-37.142-82.979-82.98-82.979h-53.569zm-1220.7 52.446v-54.692s-162.32 166.3-174.08 174.94c-7.611 5.589-15.251 9.623-22.773 12.363 8.964 3.234 18.617 4.911 28.634 4.709 15.092-0.299 31.466-5.145 47.708-17.072 7.271-5.341 72.08-70.937 120.51-120.25zm547.9-157.57-54.274-54.646 3.385 262.17c0.222 36.68-23.394 69.546-56.331 81.204 8.27 2.959 17.059 4.497 26.91 4.497h0.509c45.827 0 82.758-39.874 82.481-85.701l-2.68-207.52zm-1422.7 271.09h-119.04 119.04zm2012.2-763.41h-385.41l153.29 152.96c20.302 14.449 33.944 37.761 34.907 64.58 1.604 44.554-32.251 82.061-76.253 85.59-0.332 0.033-0.664 0.067-0.995 0.089-0.897 0.055-1.782 0.199-2.689 0.232l-255.12 9.194 284.81 284.81h53.569l-284.81-284.81 255.12-9.194c0.907-0.033 1.792-0.177 2.689-0.232 0.332-0.022 0.663-0.056 0.995-0.089 44.002-3.529 77.857-41.036 76.253-85.59-0.963-26.819-14.604-50.131-34.907-64.58l-153.29-152.96h331.84zm-1137.4 173.55-103.07 103.68 7.302 179.93-51.423 52.873-9.448-232.81 156.64-157.56v53.883zm219.53-8.466v192.13l108.05 99.391 0.49 49.728-162.11-149.12v-245.39l53.569 53.261zm-650.69 154.7 0.306-0.306-199.11 1.131c2.246 0.183 4.498 0.274 6.751 0.274 0.376-0 0.752-0.056 1.139-0.056 0.244 0 0.487 0.034 0.719 0.034h0.609l189.59-1.077zm2072.3-485.75c45.838 0 82.98 37.153 82.98 82.991-0 45.837-37.142 82.979-82.98 82.979h-269.01l118.83 118.83c32.406 32.396 32.406 84.938-0.011 117.34-9.288 9.288-20.234 15.913-31.889 19.875 8.668 2.949 17.726 4.422 26.786 4.422 21.231-0 42.474-8.099 58.672-24.297 32.417-32.406 32.417-84.948 0.011-117.34l-118.83-118.83h269.01c45.838-0 82.98-37.142 82.98-82.979-0-45.838-37.142-82.991-82.98-82.991h-53.569zm-2209.9 165.96h-387.54l-236.17 236.17c-9.294 9.288-20.243 15.913-31.898 19.874 8.667 2.949 17.727 4.423 26.784 4.423 21.232-0 42.475-8.099 58.683-24.297l236.17-236.17h333.97zm457.38-0h-177.12l-143.53 154.27-53.91 0.366 143.88-154.64h230.69zm607.96 150.49-51.708 1.861-152.35-152.35h53.569l150.49 150.49zm-1687.6-150.5h-223.25 223.25zm2650.1-425.21c11.656 3.962 22.607 10.592 31.901 19.886 32.406 32.395 32.406 84.938-0.011 117.34l-122.05 122.04h53.569l122.05-122.04c32.417-32.406 32.417-84.949 0.011-117.34-23.119-23.119-56.486-29.75-85.47-19.886zm-2683.4-0.01c11.655 3.961 22.602 10.586 31.896 19.874l239.4 239.4h53.569l-239.4-239.4c-23.123-23.108-56.48-29.732-85.465-19.874zm1884 93.172-150.82 0.122-165.98 165.98h-53.569l165.98-165.98 204.43-0.166-0.04 0.044zm-929.36 4.574-166.94 6.015 157.45 155.51h-53.569l-157.45-155.51 218.64-7.878 1.863 1.863zm1080.4-170.1c26.043 0.021 44.97 0.088 47.837 0.229 17.37 1.76 34.32 8.907 48.073 21.697 33.557 31.233 35.449 83.731 4.237 117.28l-179.04 192.42h53.569l179.04-192.42c31.212-33.546 29.32-86.044-4.237-117.28-13.753-12.79-30.703-19.937-48.073-21.697-4.618-0.228-50.894-0.262-101.41-0.229zm-488.49-112.93-102.69 97.817v178.43l-53.569 53.256v-231.69l155.37-147.99 0.893 50.174zm-422.54 2-0.177 164.69 100.5 101.1v53.888l-154.06-154.98 0.232-215.97 53.514 51.278zm1321-320.85c45.838 0 82.98 37.142 82.98 82.98s-37.142 82.979-82.98 82.979h-333.96l-266.02 266.02s22.495-0.048 53.666-0.096l265.92-265.92h333.96c45.838 0 82.98-37.141 82.98-82.979s-37.142-82.98-82.98-82.98h-53.569zm-793.06-1.28c12.531 4.096 24.217 11.15 33.842 21.14 15.113 15.689 22.515 35.792 22.902 55.973 0.011 0.398-0.387 0.774-0.376 1.172l4.592 250.54 52.598-52.952-3.621-197.59c-0.011-0.398 0.387-0.774 0.376-1.172-0.387-20.181-7.789-40.284-22.902-55.973-22.915-23.784-57.514-30.928-87.411-21.14zm-1081.3-364.94c32.691 11.138 56.195 42.098 56.195 78.562v330.74l277.7 275.98 0.22-53.018-224.36-222.96v-330.74c0-45.837-37.142-82.979-82.979-82.979-9.374 0-18.384 1.553-26.785 4.417zm444.84 365.22c10.76 3.738 20.944 9.798 29.826 18.202l178.97 171.21v-51.248l-125.4-119.97c-23.238-21.987-55.38-27.931-83.395-18.202zm580.63-575.56c11.971 3.944 23.184 10.615 32.588 20.013 32.406 32.406 31.488 84.938-0.918 117.36l-237.54 235.71v389.67l53.569-51.134v-338.54l237.54-235.71c32.406-32.417 33.325-84.949 0.918-117.36-23.013-22.997-56.859-29.669-86.157-20.013zm-1077.4 742.53h-288.22 288.22zm1921.2-499.1c12.075 3.938 23.377 10.624 32.816 20.058 32.407 32.417 32.407 84.948 0 117.37l-195.72 195.72h53.569l195.72-195.72c32.406-32.418 32.406-84.949-0-117.37-22.978-22.962-56.983-29.649-86.386-20.058zm-342.43-33.08c32.691 11.138 56.195 42.098 56.195 78.562v172.6l53.569-53.08v-119.52c0-45.837-37.141-82.979-82.979-82.979-9.374 0-18.384 1.553-26.785 4.417zm-1856.4 33.359c11.443 3.972 22.214 10.565 31.434 19.779l188.37 190.21v-54.092l-134.8-136.12c-23.198-23.182-56.22-29.775-85.003-19.779zm835.27-243.46c11.443 3.972 22.214 10.565 31.434 19.778l116.5 118.34v-54.414l-62.934-63.926c-23.198-23.182-56.22-29.775-85.003-19.778zm257.7-210.33c32.691 11.138 56.195 42.098 56.195 78.562v269.87l53.569-52.951v-216.92c-0-45.837-37.142-82.979-82.98-82.979-9.374-0-18.384 1.553-26.784 4.417z" fill="#cbcbcb" fill-rule="nonzero"/><defs><linearGradient id="b" x2="1" gradientTransform="matrix(1460.4 1436.9 -1436.9 1460.4 995.86 993.48)" gradientUnits="userSpaceOnUse"><stop stop-color="#fffefe" offset="0"/><stop stop-color="#ade6fd" offset="1"/></linearGradient><linearGradient id="a" x2="1" gradientTransform="matrix(690.4 679.27 -679.27 690.4 -128.35 -209.74)" gradientUnits="userSpaceOnUse"><stop stop-color="#fffefe" offset="0"/><stop stop-color="#79caea" offset="1"/></linearGradient></defs></svg>
